<svg xmlns="http://www.w3.org/2000/svg" viewBox="0 0 24 24" fill="none">
  <path d="M11.572 0c-.176 0-.31.001-.358.007a19.76 19.76 0 0 1-.364.033C7.443.346 3.25 2.185.394 5.346c-.073.08-.073.08-.073.08 0 0 .073.08.073.08C3.25 8.675 7.443 10.514 10.85 10.96c.12.01.243.018.364.033.048.006.182.007.358.007s.31-.001.358-.007a19.76 19.76 0 0 0 .364-.033c3.407-.446 7.6-2.285 10.456-5.446.073-.08.073-.08.073-.08 0 0-.073-.08-.073-.08C19.53 2.185 15.337.346 11.93.96a19.76 19.76 0 0 0-.364.033C11.518.999 11.384 1 11.572 1z" fill="#000"/>
  <path d="M22.429 12c0 .176-.001.31-.007.358a19.76 19.76 0 0 1-.033.364c-.614 3.407-2.453 7.6-5.614 10.456-.08.073-.08.073-.08.073 0 0-.08-.073-.08-.073-2.161-2.856-3.5-6.15-3.5-10.456 0-4.306 1.339-7.6 3.5-10.456.08-.073.08-.073.08-.073 0 0 .08.073.08.073 3.161 2.856 5 6.15 5.614 10.456.022.12.03.243.033.364.006.048.007.182.007.358z" fill="#000"/>
</svg>

