<svg xmlns="http://www.w3.org/2000/svg" viewBox="0 0 24 24" fill="none">
  <path d="M12 6.036c-2.667 0-4.333 1.333-5 4 1-1.333 2.167-1.833 3.5-1.5.76.189 1.31.738 1.91 1.132.958.629 2.06 1.354 3.59 1.354 2.667 0 4.333-1.333 5-4-1 1.333-2.167 1.833-3.5 1.5-.76-.189-1.31-.738-1.91-1.132-.958-.629-2.06-1.354-3.59-1.354zM7 12.036c-2.667 0-4.333 1.333-5 4 1-1.333 2.167-1.833 3.5-1.5.76.189 1.31.738 1.91 1.132.958.629 2.06 1.354 3.59 1.354 2.667 0 4.333-1.333 5-4-1 1.333-2.167 1.833-3.5 1.5-.76-.189-1.31-.738-1.91-1.132-.958-.629-2.06-1.354-3.59-1.354z" fill="#06B6D4"/>
</svg>

